<?xml version="1.0" ?><!DOCTYPE svg  PUBLIC '-//W3C//DTD SVG 1.1//EN'  'http://www.w3.org/Graphics/SVG/1.1/DTD/svg11.dtd'><svg height="512px" style="enable-background:new 0 0 512 512;" version="1.1" viewBox="0 0 512 512" width="512px" xml:space="preserve" xmlns="http://www.w3.org/2000/svg" xmlns:xlink="http://www.w3.org/1999/xlink"><g id="house_x2C___tree__x2C__home__x2C__real_estate__x2C_"><g><g><path d="M411.049,442.313H189.223c-2.464,0-4.47-1.982-4.5-4.446l-2.04-171.985     c-0.03-2.485,1.961-4.523,4.446-4.554c0.018,0,0.036,0,0.054,0c2.461,0,4.469,1.979,4.499,4.446l1.987,167.539h212.879V264.196     c0-2.485,2.015-4.5,4.5-4.5s4.5,2.015,4.5,4.5v173.616C415.549,440.298,413.534,442.313,411.049,442.313z" style="fill:#221F20;"/></g><g><path d="M140.789,304.214c-9.378,0-18.077-5.135-20.684-12.209c-1.979-5.371-0.185-10.948,4.923-15.303     c56.387-47.802,112.765-95.602,169.13-143.396c0.813-0.689,1.844-1.068,2.91-1.068h6.136c1.065,0,2.097,0.378,2.91,1.068     l169.12,143.388c5.115,4.361,6.911,9.934,4.936,15.294c-2.573,6.985-11.152,12.056-20.397,12.056h-0.002     c-5.609,0-10.756-1.86-14.882-5.379L300.348,176.134L155.374,299.082C151.278,302.454,146.252,304.214,140.789,304.214z      M298.72,141.239c-55.946,47.438-111.904,94.882-167.862,142.321c-3.251,2.771-2.541,4.7-2.308,5.334     c1.125,3.053,6.311,6.32,12.239,6.32c2.337,0,5.764-0.526,8.814-3.038l147.833-125.374c1.678-1.424,4.141-1.423,5.82,0     l147.462,125.007c3.137,2.675,6.653,3.235,9.053,3.235h0.001c5.791,0,10.855-3.188,11.953-6.167     c0.231-0.63,0.938-2.547-2.321-5.325L301.553,141.239H298.72z" style="fill:#221F20;"/></g><g><path d="M338.739,442.313h-79.248c-2.485,0-4.5-2.015-4.5-4.5v-76.806     c0-11.672,4.621-22.721,13.011-31.111c8.392-8.392,19.444-13.014,31.12-13.014c11.671,0,22.718,4.622,31.108,13.014     c8.389,8.392,13.009,19.44,13.009,31.111v76.806C343.239,440.298,341.225,442.313,338.739,442.313z M263.991,433.313h70.248     v-72.306c0-19.04-16.082-35.125-35.117-35.125c-19.043,0-35.131,16.085-35.131,35.125V433.313z" style="fill:#221F20;"/></g><g><path d="M187.999,349.576H36.034c-1.606,0-3.09-0.855-3.895-2.245s-0.808-3.104-0.008-4.496l34.127-59.433     H36.034c-1.606,0-3.091-0.856-3.896-2.247s-0.806-3.104-0.005-4.497l38.199-66.382H36.034c-1.608,0-3.094-0.858-3.897-2.25     s-0.803-3.108,0.001-4.5L141.628,13.977c0.804-1.392,2.289-2.249,3.896-2.249c0,0,0,0,0,0c1.608,0,3.094,0.858,3.897,2.251     l96.403,167.081c1.242,2.153,0.503,4.905-1.649,6.147c-2.154,1.243-4.905,0.503-6.147-1.649L145.522,25.228L43.83,201.276h34.283     c1.606,0,3.091,0.856,3.896,2.247c0.804,1.391,0.806,3.105,0.005,4.497l-38.199,66.382h30.217c1.606,0,3.09,0.855,3.895,2.245     s0.808,3.104,0.008,4.496l-34.127,59.433h144.192c2.485,0,4.5,2.015,4.5,4.5S190.484,349.576,187.999,349.576z" style="fill:#221F20;"/></g><g><path d="M159.81,442.313h-28.583c-2.485,0-4.5-2.015-4.5-4.5v-92.736c0-2.485,2.015-4.5,4.5-4.5h28.583     c2.485,0,4.5,2.015,4.5,4.5v92.736C164.31,440.298,162.295,442.313,159.81,442.313z M135.727,433.313h19.583v-83.736h-19.583     V433.313z" style="fill:#221F20;"/></g><g><path d="M439.237,500.725H80.154c-2.485,0-4.5-2.015-4.5-4.5v-29.006     c0-18.696,15.213-33.906,33.913-33.906h300.666c18.475,0,33.505,15.21,33.505,33.906v29.006     C443.737,498.71,441.723,500.725,439.237,500.725z M84.654,491.725h350.083v-24.506c0-13.733-10.993-24.906-24.505-24.906     H109.567c-13.737,0-24.913,11.173-24.913,24.906V491.725z" style="fill:#221F20;"/></g></g></g><g id="Layer_1"/></svg>